<svg xmlns="http://www.w3.org/2000/svg" viewBox="-5 -5 34 34" fill="#ffffff">
    <path d="M17.0881 9.17066C17.1182 6.55675 19.3444 5.37894 19.4533 5.32044C18.2576 3.58556 16.3956 3.26625 15.6581 3.23869C13.6234 3.03094 11.6606 4.43925 10.6181 4.43925C9.56681 4.43925 7.9575 3.16781 6.22256 3.26888C3.93169 3.29894 1.83844 4.63406 0.655312 6.69637C-1.74281 10.8443 1.62187 16.9536 3.9645 20.3541C5.10169 21.9966 6.43894 23.9051 8.23669 23.8348C9.9705 23.7654 10.6359 22.7304 12.7845 22.7304C14.9216 22.7304 15.5323 23.8348 17.3492 23.8011C19.2279 23.7654 20.4289 22.0836 21.5539 20.4373C22.8467 18.5445 23.3859 16.7034 23.4045 16.6198C23.3764 16.6086 19.7801 15.2286 19.8203 11.0661C19.8392 9.40031 20.5226 7.78856 21.6036 6.60919C20.8067 5.01188 18.0898 3.99919 17.0881 9.17066Z" />
    <path d="M15.4241 2.22881C16.3316 1.131 16.2735 0.160689 16.2482 0C15.0116 0.0515625 13.5116 0.826875 12.6285 1.85437C11.8372 2.76656 12.0491 3.96 12.0491 3.96C13.2952 4.05937 14.6188 3.21094 15.4241 2.22881Z" />
</svg>